<svg width="180" height="180" viewBox="0 0 180 180" fill="none" xmlns="http://www.w3.org/2000/svg">
<path d="M62.9578 41.2594C63.7582 41.1958 64.5029 40.8249 65.0359 40.2244C65.569 39.6239 65.8489 38.8405 65.8171 38.0382C65.7853 37.2359 65.4442 36.477 64.8653 35.9206C64.2864 35.3642 63.5146 35.0535 62.7117 35.0535C61.9088 35.0535 61.137 35.3642 60.5581 35.9206C59.9792 36.477 59.6381 37.2359 59.6063 38.0382C59.5745 38.8405 59.8544 39.6239 60.3875 40.2244C60.9205 40.8249 61.6652 41.1958 62.4656 41.2594H62.9578Z" fill="#EFFAFE"/>
<path d="M51.9469 50.2734H53.4375V49.4156C53.4375 46.4625 54.9141 43.7062 58.2047 41.9906C57.3075 40.9222 56.8103 39.5748 56.7985 38.1797C56.7985 36.6104 57.4218 35.1055 58.5315 33.9959C59.6411 32.8863 61.146 32.2629 62.7153 32.2629C64.2845 32.2629 65.7895 32.8863 66.8991 33.9959C68.0087 35.1055 68.6321 36.6104 68.6321 38.1797C68.6185 39.5745 68.1215 40.9214 67.2258 41.9906C70.5235 43.7133 71.993 46.4836 71.993 49.4156V50.2734H73.4696V28.7437H51.9469V50.2734Z" fill="#E9803E"/>
<path d="M128.053 155.391V126.218L127.638 126.288C125.199 126.713 122.989 127.986 121.397 129.882C119.805 131.779 118.935 134.177 118.941 136.652V144.844C118.941 145.217 118.792 145.574 118.529 145.838C118.265 146.102 117.907 146.25 117.534 146.25H95.7375V155.391C95.7375 159.68 97.4413 163.793 100.474 166.826C103.507 169.859 107.62 171.562 111.909 171.562C116.198 171.562 120.312 169.859 123.345 166.826C126.377 163.793 128.081 159.68 128.081 155.391H128.053Z" fill="#E9803E"/>
<path d="M127.638 126.288C126.555 126.481 125.509 126.841 124.538 127.357V155.391C124.537 159.375 123.065 163.219 120.405 166.185C117.745 169.151 114.084 171.031 110.123 171.464C112.382 171.711 114.667 171.479 116.83 170.784C118.992 170.089 120.985 168.946 122.676 167.43C124.368 165.913 125.721 164.057 126.647 161.983C127.574 159.909 128.053 157.662 128.053 155.391V126.218L127.638 126.288Z" fill="#CC6625"/>
<path d="M63.8438 44.0719C61.6641 44.0719 61.6852 44.0719 61.5797 44.0719C60.163 44.0737 58.8049 44.6373 57.8032 45.6391C56.8014 46.6408 56.2378 47.9989 56.236 49.4156V50.2734H69.1946V49.4156C69.1927 47.9977 68.6281 46.6385 67.6249 45.6366C66.6216 44.6346 65.2617 44.0719 63.8438 44.0719Z" fill="#EFFAFE"/>
<path d="M62.7117 35.0789C62.2216 35.082 61.7394 35.2026 61.3055 35.4305C61.8145 35.6862 62.2425 36.0784 62.5415 36.5632C62.8405 37.0481 62.9989 37.6065 62.9989 38.1762C62.9989 38.7458 62.8405 39.3043 62.5415 39.7891C62.2425 40.274 61.8145 40.6662 61.3055 40.9219C61.6688 41.1094 62.0653 41.224 62.4727 41.2594H62.9649C63.7717 41.2073 64.526 40.8414 65.0664 40.24C65.6069 39.6387 65.8904 38.8497 65.8564 38.0419C65.8224 37.2342 65.4736 36.4718 64.8845 35.918C64.2955 35.3642 63.513 35.063 62.7047 35.0789H62.7117Z" fill="#E4EBED"/>
<path d="M70.6711 28.7437V44.9648C71.5549 46.2825 72.0205 47.8361 72.007 49.4226V50.2734H73.4836V28.7437H70.6711Z" fill="#E9803E"/>
<path d="M63.8438 44.0719C61.6641 44.0719 61.6852 44.0719 61.5797 44.0719H61.3055C62.6717 44.1438 63.9584 44.7362 64.9013 45.7275C65.8441 46.7187 66.3715 48.0335 66.375 49.4016V50.2734H69.1875V49.4156C69.1857 47.9989 68.6221 46.6408 67.6203 45.6391C66.6186 44.6373 65.2604 44.0737 63.8438 44.0719Z" fill="#E4EBED"/>
<path d="M131.112 10.4273V17.3039H137.988L131.112 10.4273Z" fill="#EFFAFE"/>
<path d="M47.9672 143.438H116.128V136.652C116.128 133.109 117.536 129.711 120.041 127.206C122.546 124.7 125.944 123.293 129.487 123.293C129.86 123.293 130.218 123.441 130.482 123.705C130.746 123.969 130.894 124.326 130.894 124.699V143.438H135.577C136.752 143.436 137.879 142.967 138.709 142.136C139.54 141.304 140.006 140.176 140.006 139.001V20.1164H129.705C129.332 20.1164 128.975 19.9682 128.711 19.7045C128.447 19.4408 128.299 19.0831 128.299 18.7102V8.4375H47.9672C46.7917 8.43936 45.665 8.90762 44.8345 9.73947C44.0039 10.5713 43.5375 11.6987 43.5375 12.8742V139.001C43.5375 140.176 44.0039 141.304 44.8345 142.136C45.665 142.967 46.7917 143.436 47.9672 143.438ZM76.2961 51.6797C76.2961 52.0526 76.1479 52.4103 75.8842 52.6741C75.6205 52.9378 75.2628 53.0859 74.8898 53.0859H50.5406C50.1676 53.0859 49.81 52.9378 49.5462 52.6741C49.2825 52.4103 49.1343 52.0526 49.1343 51.6797V27.3375C49.1343 26.9645 49.2825 26.6069 49.5462 26.3431C49.81 26.0794 50.1676 25.9313 50.5406 25.9313H74.8898C75.2628 25.9313 75.6205 26.0794 75.8842 26.3431C76.1479 26.6069 76.2961 26.9645 76.2961 27.3375V51.6797ZM129.459 40.9148H84.4594C84.0864 40.9148 83.7287 40.7667 83.465 40.503C83.2013 40.2392 83.0531 39.8816 83.0531 39.5086C83.0531 39.1356 83.2013 38.7779 83.465 38.5142C83.7287 38.2505 84.0864 38.1023 84.4594 38.1023H129.459C129.832 38.1023 130.19 38.2505 130.454 38.5142C130.717 38.7779 130.866 39.1356 130.866 39.5086C130.866 39.8816 130.717 40.2392 130.454 40.503C130.19 40.7667 129.832 40.9148 129.459 40.9148ZM84.4594 50.2734H129.459C129.832 50.2734 130.19 50.4216 130.454 50.6853C130.717 50.949 130.866 51.3067 130.866 51.6797C130.866 52.0526 130.717 52.4103 130.454 52.6741C130.19 52.9378 129.832 53.0859 129.459 53.0859H84.4594C84.0864 53.0859 83.7287 52.9378 83.465 52.6741C83.2013 52.4103 83.0531 52.0526 83.0531 51.6797C83.0531 51.3067 83.2013 50.949 83.465 50.6853C83.7287 50.4216 84.0864 50.2734 84.4594 50.2734ZM129.459 28.7367H87.0609C86.688 28.7367 86.3303 28.5886 86.0665 28.3248C85.8028 28.0611 85.6547 27.7034 85.6547 27.3305C85.6547 26.9575 85.8028 26.5998 86.0665 26.3361C86.3303 26.0724 86.688 25.9242 87.0609 25.9242H129.459C129.832 25.9242 130.19 26.0724 130.454 26.3361C130.717 26.5998 130.866 26.9575 130.866 27.3305C130.866 27.7034 130.717 28.0611 130.454 28.3248C130.19 28.5886 129.832 28.7367 129.459 28.7367ZM50.5406 62.4516H129.459C129.832 62.4516 130.19 62.5997 130.454 62.8634C130.717 63.1272 130.866 63.4849 130.866 63.8578C130.866 64.2308 130.717 64.5885 130.454 64.8522C130.19 65.1159 129.832 65.2641 129.459 65.2641H50.5406C50.1676 65.2641 49.81 65.1159 49.5462 64.8522C49.2825 64.5885 49.1343 64.2308 49.1343 63.8578C49.1343 63.4849 49.2825 63.1272 49.5462 62.8634C49.81 62.5997 50.1676 62.4516 50.5406 62.4516ZM50.5406 74.6227H129.459C129.832 74.6227 130.19 74.7708 130.454 75.0345C130.717 75.2983 130.866 75.6559 130.866 76.0289C130.866 76.4019 130.717 76.7596 130.454 77.0233C130.19 77.287 129.832 77.4352 129.459 77.4352H50.5406C50.1676 77.4352 49.81 77.287 49.5462 77.0233C49.2825 76.7596 49.1343 76.4019 49.1343 76.0289C49.1343 75.6559 49.2825 75.2983 49.5462 75.0345C49.81 74.7708 50.1676 74.6227 50.5406 74.6227ZM50.5406 86.7938H129.459C129.832 86.7938 130.19 86.9419 130.454 87.2056C130.717 87.4694 130.866 87.827 130.866 88.2C130.866 88.573 130.717 88.9306 130.454 89.1944C130.19 89.4581 129.832 89.6063 129.459 89.6063H50.5406C50.1676 89.6063 49.81 89.4581 49.5462 89.1944C49.2825 88.9306 49.1343 88.573 49.1343 88.2C49.1343 87.827 49.2825 87.4694 49.5462 87.2056C49.81 86.9419 50.1676 86.7938 50.5406 86.7938ZM50.5406 98.9648H129.459C129.832 98.9648 130.19 99.113 130.454 99.3767C130.717 99.6404 130.866 99.9981 130.866 100.371C130.866 100.744 130.717 101.102 130.454 101.365C130.19 101.629 129.832 101.777 129.459 101.777H50.5406C50.1676 101.777 49.81 101.629 49.5462 101.365C49.2825 101.102 49.1343 100.744 49.1343 100.371C49.1343 99.9981 49.2825 99.6404 49.5462 99.3767C49.81 99.113 50.1676 98.9648 50.5406 98.9648ZM50.5406 111.136H129.459C129.832 111.136 130.19 111.284 130.454 111.548C130.717 111.812 130.866 112.169 130.866 112.542C130.866 112.915 130.717 113.273 130.454 113.537C130.19 113.8 129.832 113.948 129.459 113.948H50.5406C50.1676 113.948 49.81 113.8 49.5462 113.537C49.2825 113.273 49.1343 112.915 49.1343 112.542C49.1343 112.169 49.2825 111.812 49.5462 111.548C49.81 111.284 50.1676 111.136 50.5406 111.136ZM50.5406 123.307H99.0562C99.4292 123.307 99.7869 123.455 100.051 123.719C100.314 123.983 100.462 124.34 100.462 124.713C100.462 125.086 100.314 125.444 100.051 125.708C99.7869 125.971 99.4292 126.12 99.0562 126.12H50.5406C50.1676 126.12 49.81 125.971 49.5462 125.708C49.2825 125.444 49.1343 125.086 49.1343 124.713C49.1343 124.34 49.2825 123.983 49.5462 123.719C49.81 123.455 50.1676 123.307 50.5406 123.307Z" fill="#EFFAFE"/>
<path d="M136.462 20.1164V139.001C136.462 140.176 135.996 141.304 135.165 142.136C134.335 142.967 133.208 143.436 132.033 143.437H135.548C136.724 143.436 137.851 142.967 138.681 142.136C139.512 141.304 139.978 140.176 139.978 139.001V20.1164H136.462Z" fill="#E4EBED"/>
<path d="M44.4515 146.602H92.5453V155.391C92.5453 160.519 94.5825 165.437 98.2087 169.063C101.835 172.689 106.753 174.727 111.881 174.727C117.009 174.727 121.928 172.689 125.554 169.063C129.18 165.437 131.217 160.519 131.217 155.391V146.602H135.548C137.562 146.598 139.493 145.796 140.916 144.371C142.34 142.946 143.14 141.015 143.142 139.001V18.7101C143.132 18.2458 142.949 17.802 142.629 17.4656L130.95 5.78671H130.915C130.588 5.47707 130.156 5.30144 129.705 5.29453H44.4515C42.4375 5.29825 40.5071 6.10046 39.0836 7.52528C37.6601 8.9501 36.8596 10.8812 36.8578 12.8953V139.001C36.8596 141.015 37.6601 142.946 39.0836 144.371C40.5071 145.796 42.4375 146.598 44.4515 146.602ZM127.702 144.844V155.391C127.702 159.586 126.035 163.61 123.068 166.577C120.101 169.544 116.077 171.211 111.881 171.211C107.685 171.211 103.661 169.544 100.695 166.577C97.7277 163.61 96.0609 159.586 96.0609 155.391V146.602H117.534C118.001 146.602 118.448 146.416 118.777 146.087C119.107 145.757 119.292 145.31 119.292 144.844V136.652C119.296 134.258 120.145 131.941 121.688 130.11C123.231 128.279 125.37 127.05 127.73 126.64L127.702 144.844ZM131.484 11.25L137.109 16.9523H131.484V11.25ZM40.3734 12.8742C40.3734 11.792 40.8028 10.754 41.5674 9.98805C42.332 9.22214 43.3693 8.79092 44.4515 8.78906H127.969V18.7101C127.969 19.1764 128.154 19.6235 128.484 19.9531C128.813 20.2828 129.26 20.468 129.727 20.468H139.648V139.001C139.648 140.083 139.218 141.121 138.454 141.887C137.689 142.653 136.652 143.084 135.57 143.086H131.238V124.727C131.238 124.261 131.053 123.814 130.723 123.484C130.394 123.155 129.947 122.97 129.48 122.97C125.853 122.973 122.375 124.416 119.809 126.981C117.244 129.546 115.801 133.025 115.798 136.652V143.086H44.4515C43.3693 143.084 42.332 142.653 41.5674 141.887C40.8028 141.121 40.3734 140.083 40.3734 139.001V12.8742Z" fill="#263238"/>
<path d="M87.0609 29.0953H129.459C129.926 29.0953 130.373 28.9101 130.702 28.5805C131.032 28.2508 131.217 27.8037 131.217 27.3375C131.217 26.8713 131.032 26.4242 130.702 26.0945C130.373 25.7649 129.926 25.5797 129.459 25.5797H87.0609C86.5947 25.5797 86.1476 25.7649 85.818 26.0945C85.4883 26.4242 85.3031 26.8713 85.3031 27.3375C85.3031 27.8037 85.4883 28.2508 85.818 28.5805C86.1476 28.9101 86.5947 29.0953 87.0609 29.0953Z" fill="#263238"/>
<path d="M84.4875 41.2664H129.487C129.954 41.2664 130.401 41.0812 130.73 40.7516C131.06 40.4219 131.245 39.9748 131.245 39.5086C131.245 39.0424 131.06 38.5953 130.73 38.2656C130.401 37.936 129.954 37.7508 129.487 37.7508H84.4875C84.0213 37.7508 83.5742 37.936 83.2445 38.2656C82.9149 38.5953 82.7297 39.0424 82.7297 39.5086C82.7297 39.9748 82.9149 40.4219 83.2445 40.7516C83.5742 41.0812 84.0213 41.2664 84.4875 41.2664Z" fill="#263238"/>
<path d="M84.4875 53.4375H129.487C129.954 53.4375 130.401 53.2523 130.73 52.9226C131.06 52.593 131.245 52.1459 131.245 51.6797C131.245 51.2135 131.06 50.7664 130.73 50.4367C130.401 50.1071 129.954 49.9219 129.487 49.9219H84.4875C84.0213 49.9219 83.5742 50.1071 83.2445 50.4367C82.9149 50.7664 82.7297 51.2135 82.7297 51.6797C82.7297 52.1459 82.9149 52.593 83.2445 52.9226C83.5742 53.2523 84.0213 53.4375 84.4875 53.4375Z" fill="#263238"/>
<path d="M50.5406 65.6156H129.459C129.926 65.6156 130.373 65.4304 130.702 65.1008C131.032 64.7711 131.217 64.324 131.217 63.8578C131.217 63.3916 131.032 62.9445 130.702 62.6149C130.373 62.2852 129.926 62.1 129.459 62.1H50.5406C50.0744 62.1 49.6273 62.2852 49.2977 62.6149C48.968 62.9445 48.7828 63.3916 48.7828 63.8578C48.7828 64.324 48.968 64.7711 49.2977 65.1008C49.6273 65.4304 50.0744 65.6156 50.5406 65.6156Z" fill="#263238"/>
<path d="M50.5406 77.7867H129.459C129.926 77.7867 130.373 77.6015 130.702 77.2719C131.032 76.9422 131.217 76.4951 131.217 76.0289C131.217 75.5627 131.032 75.1156 130.702 74.7859C130.373 74.4563 129.926 74.2711 129.459 74.2711H50.5406C50.0744 74.2711 49.6273 74.4563 49.2977 74.7859C48.968 75.1156 48.7828 75.5627 48.7828 76.0289C48.7828 76.4951 48.968 76.9422 49.2977 77.2719C49.6273 77.6015 50.0744 77.7867 50.5406 77.7867Z" fill="#263238"/>
<path d="M50.5406 89.9648H129.459C129.926 89.9648 130.373 89.7796 130.702 89.45C131.032 89.1203 131.217 88.6732 131.217 88.207C131.217 87.7408 131.032 87.2937 130.702 86.9641C130.373 86.6344 129.926 86.4492 129.459 86.4492H50.5406C50.0744 86.4492 49.6273 86.6344 49.2977 86.9641C48.968 87.2937 48.7828 87.7408 48.7828 88.207C48.7828 88.6732 48.968 89.1203 49.2977 89.45C49.6273 89.7796 50.0744 89.9648 50.5406 89.9648Z" fill="#263238"/>
<path d="M50.5406 102.136H129.459C129.926 102.136 130.373 101.951 130.702 101.621C131.032 101.291 131.217 100.844 131.217 100.378C131.217 99.9119 131.032 99.4648 130.702 99.1352C130.373 98.8055 129.926 98.6203 129.459 98.6203H50.5406C50.0744 98.6203 49.6273 98.8055 49.2977 99.1352C48.968 99.4648 48.7828 99.9119 48.7828 100.378C48.7828 100.844 48.968 101.291 49.2977 101.621C49.6273 101.951 50.0744 102.136 50.5406 102.136Z" fill="#263238"/>
<path d="M50.5406 114.307H129.459C129.926 114.307 130.373 114.122 130.702 113.792C131.032 113.463 131.217 113.015 131.217 112.549C131.217 112.083 131.032 111.636 130.702 111.306C130.373 110.977 129.926 110.791 129.459 110.791H50.5406C50.0744 110.791 49.6273 110.977 49.2977 111.306C48.968 111.636 48.7828 112.083 48.7828 112.549C48.7828 113.015 48.968 113.463 49.2977 113.792C49.6273 114.122 50.0744 114.307 50.5406 114.307Z" fill="#263238"/>
<path d="M50.5406 126.485H99.0563C99.5225 126.485 99.9696 126.3 100.299 125.97C100.629 125.641 100.814 125.194 100.814 124.727C100.814 124.261 100.629 123.814 100.299 123.484C99.9696 123.155 99.5225 122.97 99.0563 122.97H50.5406C50.0744 122.97 49.6273 123.155 49.2977 123.484C48.968 123.814 48.7828 124.261 48.7828 124.727C48.7828 125.194 48.968 125.641 49.2977 125.97C49.6273 126.3 50.0744 126.485 50.5406 126.485Z" fill="#263238"/>
<path d="M50.5406 53.4375H74.8899C75.3561 53.4375 75.8032 53.2523 76.1328 52.9226C76.4625 52.593 76.6477 52.1459 76.6477 51.6797V27.3375C76.6477 26.8713 76.4625 26.4242 76.1328 26.0945C75.8032 25.7649 75.3561 25.5797 74.8899 25.5797H50.5406C50.0744 25.5797 49.6273 25.7649 49.2977 26.0945C48.968 26.4242 48.7828 26.8713 48.7828 27.3375V51.6797C48.7828 52.1459 48.968 52.593 49.2977 52.9226C49.6273 53.2523 50.0744 53.4375 50.5406 53.4375ZM68.8219 49.9219H56.5875V49.4156C56.5894 48.0922 57.1159 46.8235 58.0518 45.8877C58.9876 44.9519 60.2563 44.4253 61.5797 44.4234H63.8438C65.1672 44.4253 66.4359 44.9519 67.3717 45.8877C68.3075 46.8235 68.8341 48.0922 68.836 49.4156L68.8219 49.9219ZM59.9625 38.1797C59.9603 37.6454 60.1139 37.122 60.4044 36.6735C60.695 36.2251 61.1099 35.871 61.5985 35.6547C62.087 35.4383 62.6281 35.369 63.1554 35.4552C63.6827 35.5415 64.1735 35.7795 64.5677 36.1402C64.9619 36.5009 65.2424 36.9687 65.375 37.4864C65.5076 38.004 65.4864 38.549 65.3141 39.0548C65.1418 39.5606 64.8259 40.0052 64.4049 40.3343C63.9839 40.6634 63.4762 40.8627 62.9438 40.9078H62.4797C61.7951 40.8498 61.1571 40.5376 60.6912 40.0327C60.2253 39.5278 59.9653 38.8667 59.9625 38.1797ZM52.2985 29.0953H73.125V49.9219H72.3516V49.4156C72.3493 47.8585 71.92 46.3317 71.1105 45.0015C70.301 43.6713 69.1422 42.5886 67.7602 41.8711C68.4448 40.9375 68.8574 39.8324 68.9521 38.6786C69.0468 37.5247 68.8199 36.3672 68.2966 35.3344C67.7732 34.3017 66.974 33.4342 65.9875 32.8282C65.0011 32.2222 63.866 31.9014 62.7082 31.9014C61.5505 31.9014 60.4154 32.2222 59.4289 32.8282C58.4425 33.4342 57.6432 34.3017 57.1199 35.3344C56.5966 36.3672 56.3697 37.5247 56.4644 38.6786C56.5591 39.8324 56.9716 40.9375 57.6563 41.8711C56.2743 42.5886 55.1155 43.6713 54.3059 45.0015C53.4964 46.3317 53.0672 47.8585 53.0649 49.4156V49.9219H52.2914L52.2985 29.0953Z" fill="#263238"/>
<path d="M30.818 15.4688H28.0055V12.6562C28.0055 12.4698 27.9314 12.2909 27.7996 12.1591C27.6677 12.0272 27.4888 11.9531 27.3024 11.9531C27.1159 11.9531 26.937 12.0272 26.8052 12.1591C26.6733 12.2909 26.5992 12.4698 26.5992 12.6562V15.4688H23.7867C23.6003 15.4688 23.4214 15.5428 23.2896 15.6747C23.1577 15.8066 23.0836 15.9854 23.0836 16.1719C23.0836 16.3584 23.1577 16.5372 23.2896 16.6691C23.4214 16.8009 23.6003 16.875 23.7867 16.875H26.5992V19.6875C26.5992 19.874 26.6733 20.0528 26.8052 20.1847C26.937 20.3165 27.1159 20.3906 27.3024 20.3906C27.4888 20.3906 27.6677 20.3165 27.7996 20.1847C27.9314 20.0528 28.0055 19.874 28.0055 19.6875V16.875H30.818C31.0045 16.875 31.1833 16.8009 31.3152 16.6691C31.447 16.5372 31.5211 16.3584 31.5211 16.1719C31.5211 15.9854 31.447 15.8066 31.3152 15.6747C31.1833 15.5428 31.0045 15.4688 30.818 15.4688Z" fill="#57C14C"/>
<path d="M165.937 90.668C165.103 90.668 164.287 90.4205 163.594 89.957C162.9 89.4934 162.359 88.8345 162.04 88.0637C161.721 87.2928 161.637 86.4445 161.8 85.6262C161.963 84.8078 162.364 84.0561 162.954 83.4661C163.544 82.8761 164.296 82.4743 165.114 82.3115C165.933 82.1488 166.781 82.2323 167.552 82.5516C168.323 82.8709 168.982 83.4116 169.445 84.1054C169.909 84.7992 170.156 85.6148 170.156 86.4492C170.156 87.5681 169.712 88.6412 168.921 89.4323C168.129 90.2235 167.056 90.668 165.937 90.668ZM165.937 83.6367C165.381 83.6367 164.837 83.8017 164.375 84.1107C163.912 84.4198 163.552 84.859 163.339 85.3729C163.126 85.8868 163.071 86.4523 163.179 86.9979C163.288 87.5435 163.555 88.0446 163.949 88.438C164.342 88.8313 164.843 89.0992 165.389 89.2077C165.934 89.3162 166.5 89.2605 167.014 89.0476C167.528 88.8348 167.967 88.4743 168.276 88.0118C168.585 87.5492 168.75 87.0055 168.75 86.4492C168.75 85.7033 168.454 84.9879 167.926 84.4605C167.399 83.933 166.683 83.6367 165.937 83.6367Z" fill="#E9803E"/>
<path d="M17.7891 164.531C16.9547 164.531 16.139 164.284 15.4453 163.82C14.7515 163.357 14.2108 162.698 13.8914 161.927C13.5721 161.156 13.4886 160.308 13.6514 159.489C13.8142 158.671 14.216 157.919 14.806 157.329C15.396 156.739 16.1477 156.338 16.966 156.175C17.7844 156.012 18.6326 156.096 19.4035 156.415C20.1744 156.734 20.8333 157.275 21.2968 157.969C21.7604 158.662 22.0078 159.478 22.0078 160.312C22.0078 161.431 21.5633 162.504 20.7722 163.296C19.981 164.087 18.9079 164.531 17.7891 164.531ZM17.7891 157.5C17.2328 157.5 16.689 157.665 16.2265 157.974C15.764 158.283 15.4035 158.722 15.1907 159.236C14.9778 159.75 14.9221 160.316 15.0306 160.861C15.1391 161.407 15.407 161.908 15.8003 162.301C16.1937 162.695 16.6948 162.962 17.2404 163.071C17.7859 163.179 18.3514 163.124 18.8654 162.911C19.3793 162.698 19.8185 162.338 20.1276 161.875C20.4366 161.413 20.6016 160.869 20.6016 160.312C20.6016 159.567 20.3052 158.851 19.7778 158.324C19.2504 157.796 18.535 157.5 17.7891 157.5Z" fill="#57C14C"/>
<path d="M26.5992 89.2969H24.7782L26.0649 88.0102C26.1801 87.8756 26.2403 87.7026 26.2334 87.5257C26.2266 87.3487 26.1532 87.1808 26.028 87.0556C25.9028 86.9304 25.7349 86.857 25.558 86.8502C25.381 86.8434 25.208 86.9036 25.0735 87.0188L23.7867 88.3055V86.4844C23.7867 86.2979 23.7127 86.1191 23.5808 85.9872C23.4489 85.8553 23.2701 85.7812 23.0836 85.7812C22.8971 85.7812 22.7183 85.8553 22.5864 85.9872C22.4546 86.1191 22.3805 86.2979 22.3805 86.4844V88.3055L21.0938 87.0188C20.9593 86.9036 20.7862 86.8434 20.6093 86.8502C20.4323 86.857 20.2645 86.9304 20.1392 87.0556C20.014 87.1808 19.9407 87.3487 19.9338 87.5257C19.927 87.7026 19.9872 87.8756 20.1024 88.0102L21.3821 89.2969H19.568C19.3815 89.2969 19.2027 89.371 19.0708 89.5028C18.9389 89.6347 18.8649 89.8135 18.8649 90C18.8649 90.1865 18.9389 90.3653 19.0708 90.4972C19.2027 90.629 19.3815 90.7031 19.568 90.7031H21.3891L20.1024 91.9898C19.9872 92.1244 19.927 92.2974 19.9338 92.4743C19.9407 92.6513 20.014 92.8192 20.1392 92.9444C20.2645 93.0696 20.4323 93.143 20.6093 93.1498C20.7862 93.1566 20.9593 93.0964 21.0938 92.9813L22.3805 91.6945V93.5156C22.3805 93.7021 22.4546 93.8809 22.5864 94.0128C22.7183 94.1447 22.8971 94.2188 23.0836 94.2188C23.2701 94.2188 23.4489 94.1447 23.5808 94.0128C23.7127 93.8809 23.7867 93.7021 23.7867 93.5156V91.6945L25.0735 92.9813C25.208 93.0964 25.381 93.1566 25.558 93.1498C25.7349 93.143 25.9028 93.0696 26.028 92.9444C26.1532 92.8192 26.2266 92.6513 26.2334 92.4743C26.2403 92.2974 26.1801 92.1244 26.0649 91.9898L24.7782 90.7031H26.5992C26.7857 90.7031 26.9646 90.629 27.0964 90.4972C27.2283 90.3653 27.3024 90.1865 27.3024 90C27.3024 89.8135 27.2283 89.6347 27.0964 89.5028C26.9646 89.371 26.7857 89.2969 26.5992 89.2969Z" fill="#E9803E"/>
<path d="M150.877 158.203H149.063L150.349 156.916C150.464 156.782 150.525 156.609 150.518 156.432C150.511 156.255 150.438 156.087 150.312 155.962C150.187 155.837 150.019 155.763 149.842 155.756C149.665 155.75 149.492 155.81 149.358 155.925L148.071 157.212V155.391C148.071 155.204 147.997 155.025 147.865 154.893C147.733 154.762 147.554 154.688 147.368 154.688C147.182 154.688 147.003 154.762 146.871 154.893C146.739 155.025 146.665 155.204 146.665 155.391V157.212L145.378 155.925C145.244 155.81 145.071 155.75 144.894 155.756C144.717 155.763 144.549 155.837 144.424 155.962C144.298 156.087 144.225 156.255 144.218 156.432C144.211 156.609 144.272 156.782 144.387 156.916L145.673 158.203H143.852C143.666 158.203 143.487 158.277 143.355 158.409C143.223 158.541 143.149 158.72 143.149 158.906C143.149 159.093 143.223 159.272 143.355 159.403C143.487 159.535 143.666 159.609 143.852 159.609H145.673L144.387 160.896C144.272 161.031 144.211 161.204 144.218 161.381C144.225 161.558 144.298 161.725 144.424 161.851C144.549 161.976 144.717 162.049 144.894 162.056C145.071 162.063 145.244 162.003 145.378 161.888L146.665 160.601V162.422C146.665 162.608 146.739 162.787 146.871 162.919C147.003 163.051 147.182 163.125 147.368 163.125C147.554 163.125 147.733 163.051 147.865 162.919C147.997 162.787 148.071 162.608 148.071 162.422V160.601L149.358 161.888C149.492 162.003 149.665 162.063 149.842 162.056C150.019 162.049 150.187 161.976 150.312 161.851C150.438 161.725 150.511 161.558 150.518 161.381C150.525 161.204 150.464 161.031 150.349 160.896L149.063 159.609H150.884C151.07 159.609 151.249 159.535 151.381 159.403C151.513 159.272 151.587 159.093 151.587 158.906C151.587 158.72 151.513 158.541 151.381 158.409C151.249 158.277 151.07 158.203 150.884 158.203H150.877Z" fill="#E9803E"/>
</svg>
