<svg width="180" height="180" viewBox="0 0 180 180" fill="none" xmlns="http://www.w3.org/2000/svg">
<path d="M64.0547 95.5547V102.818H121.57V95.5547C121.563 89.0805 118.988 82.8736 114.41 78.2957C109.832 73.7178 103.625 71.1426 97.1508 71.1352H88.4812C82.0059 71.1407 75.7972 73.7151 71.2177 78.2932C66.6383 82.8714 64.0621 89.0793 64.0547 95.5547Z" fill="#EFFAFE"/>
<path d="M94.4719 68.3156C98.509 67.8906 102.229 65.9326 104.865 62.8455C107.501 59.7583 108.852 55.7773 108.639 51.7235C108.426 47.6696 106.666 43.852 103.721 41.0578C100.777 38.2636 96.8719 36.7059 92.8125 36.7059C88.7531 36.7059 84.8484 38.2636 81.9037 41.0578C78.9589 43.852 77.1987 47.6696 76.9859 51.7235C76.7731 55.7773 78.1239 59.7583 80.7599 62.8455C83.3959 65.9326 87.116 67.8906 91.1531 68.3156H94.4719Z" fill="#EFFAFE"/>
<path d="M97.1437 71.1281H90.8156C97.2922 71.1337 103.502 73.709 108.082 78.2887C112.661 82.8683 115.237 89.0781 115.242 95.5547V102.818H121.57V95.5547C121.565 89.0781 118.989 82.8683 114.41 78.2887C109.83 73.709 103.62 71.1337 97.1437 71.1281Z" fill="#E4EBED"/>
<path d="M92.8125 36.7172C91.7499 36.7164 90.6899 36.8224 89.6484 37.0336C93.2262 37.7637 96.4418 39.7074 98.7513 42.5358C101.061 45.3642 102.322 48.9036 102.322 52.5551C102.322 56.2066 101.061 59.746 98.7513 62.5743C96.4418 65.4027 93.2262 67.3464 89.6484 68.0766C90.1453 68.175 90.6492 68.2524 91.1602 68.3086H94.4789C98.5068 67.8741 102.215 65.9129 104.842 62.8282C107.468 59.7435 108.813 55.7698 108.599 51.7241C108.386 47.6784 106.631 43.8682 103.694 41.077C100.758 38.2857 96.8638 36.7255 92.8125 36.7172Z" fill="#E4EBED"/>
<path d="M172.969 61.9945H158.906C158.44 61.9945 157.993 62.1797 157.663 62.5094C157.334 62.839 157.148 63.2861 157.148 63.7523C157.148 64.2185 157.334 64.6656 157.663 64.9953C157.993 65.3249 158.44 65.5101 158.906 65.5101H168.75L131.801 102.459H121.957V95.5547C121.948 89.2573 119.789 83.1518 115.837 78.2493C111.884 73.3467 106.376 69.9413 100.223 68.5969C103.689 66.3903 106.346 63.1189 107.794 59.2738C109.242 55.4288 109.404 51.2177 108.255 47.2729C107.106 43.3281 104.708 39.8626 101.421 37.3968C98.1347 34.931 94.1368 33.5981 90.0281 33.5981C85.9194 33.5981 81.9215 34.931 78.635 37.3968C75.3484 39.8626 72.9505 43.3281 71.8013 47.2729C70.6522 51.2177 70.8139 55.4288 72.2621 59.2738C73.7103 63.1189 76.3668 66.3903 79.8328 68.5969C73.6767 69.9371 68.1634 73.3407 64.2068 78.2437C60.2502 83.1466 58.0878 89.2544 58.0781 95.5547V102.466H47.4961C47.2651 102.466 47.0363 102.511 46.8227 102.599C46.6092 102.687 46.4151 102.817 46.2516 102.98L5.78671 143.437C5.62328 143.601 5.49363 143.795 5.40518 144.008C5.31673 144.222 5.27121 144.451 5.27121 144.682C5.27121 144.913 5.31673 145.142 5.40518 145.356C5.49363 145.569 5.62328 145.763 5.78671 145.927C5.95015 146.09 6.14417 146.22 6.35771 146.308C6.57124 146.397 6.80011 146.442 7.03124 146.442C7.26237 146.442 7.49124 146.397 7.70478 146.308C7.91832 146.22 8.11234 146.09 8.27577 145.927L48.2273 105.975H132.504C132.735 105.975 132.964 105.93 133.177 105.842C133.391 105.754 133.585 105.625 133.748 105.462L171.211 67.9992V77.843C171.211 78.3092 171.396 78.7563 171.726 79.0859C172.055 79.4156 172.503 79.6008 172.969 79.6008C173.435 79.6008 173.882 79.4156 174.212 79.0859C174.541 78.7563 174.727 78.3092 174.727 77.843V63.7805C174.73 63.5473 174.688 63.3157 174.601 63.0991C174.514 62.8826 174.385 62.6855 174.222 62.5193C174.058 62.3531 173.863 62.2211 173.648 62.131C173.433 62.0409 173.202 61.9945 172.969 61.9945ZM74.5312 52.5656C74.5364 49.5784 75.4064 46.6566 77.0361 44.1531C78.6659 41.6496 80.9856 39.6715 83.7152 38.4579C86.4448 37.2442 89.4674 36.8468 92.4179 37.3137C95.3684 37.7807 98.1206 39.0919 100.342 41.0891C102.563 43.0863 104.159 45.684 104.936 48.5684C105.713 51.4528 105.639 54.5005 104.721 57.3433C103.804 60.1861 102.083 62.7025 99.766 64.5885C97.4494 66.4744 94.6362 67.6493 91.6664 67.9711H88.3828C84.5811 67.562 81.0645 65.7632 78.508 62.9199C75.9515 60.0766 74.5353 56.3892 74.5312 52.5656ZM118.427 102.487H61.5937V95.5547C61.6012 89.1737 64.1393 83.0563 68.6513 78.5443C73.1633 74.0323 79.2808 71.4941 85.6617 71.4867H94.3312C100.713 71.4923 106.833 74.0296 111.346 78.5418C115.86 83.054 118.399 89.1725 118.406 95.5547L118.427 102.487Z" fill="#263238"/>
<path d="M116.016 27.4219H113.203V24.6094C113.203 24.4229 113.129 24.2441 112.997 24.1122C112.865 23.9803 112.686 23.9062 112.5 23.9062C112.314 23.9062 112.135 23.9803 112.003 24.1122C111.871 24.2441 111.797 24.4229 111.797 24.6094V27.4219H108.984C108.798 27.4219 108.619 27.496 108.487 27.6278C108.355 27.7597 108.281 27.9385 108.281 28.125C108.281 28.3115 108.355 28.4903 108.487 28.6222C108.619 28.754 108.798 28.8281 108.984 28.8281H111.797V31.6406C111.797 31.8271 111.871 32.0059 112.003 32.1378C112.135 32.2697 112.314 32.3438 112.5 32.3438C112.686 32.3438 112.865 32.2697 112.997 32.1378C113.129 32.0059 113.203 31.8271 113.203 31.6406V28.8281H116.016C116.202 28.8281 116.381 28.754 116.513 28.6222C116.645 28.4903 116.719 28.3115 116.719 28.125C116.719 27.9385 116.645 27.7597 116.513 27.6278C116.381 27.496 116.202 27.4219 116.016 27.4219Z" fill="#E9803E"/>
<path d="M82.0336 123.673H79.2211V120.86C79.2211 120.674 79.147 120.495 79.0152 120.363C78.8833 120.231 78.7045 120.157 78.518 120.157C78.3315 120.157 78.1527 120.231 78.0208 120.363C77.8889 120.495 77.8148 120.674 77.8148 120.86V123.673H75.0023C74.8159 123.673 74.637 123.747 74.5052 123.879C74.3733 124.01 74.2992 124.189 74.2992 124.376C74.2992 124.562 74.3733 124.741 74.5052 124.873C74.637 125.005 74.8159 125.079 75.0023 125.079H77.8148V127.891C77.8148 128.078 77.8889 128.257 78.0208 128.389C78.1527 128.52 78.3315 128.595 78.518 128.595C78.7045 128.595 78.8833 128.52 79.0152 128.389C79.147 128.257 79.2211 128.078 79.2211 127.891V125.079H82.0336C82.2201 125.079 82.3989 125.005 82.5308 124.873C82.6626 124.741 82.7367 124.562 82.7367 124.376C82.7367 124.189 82.6626 124.01 82.5308 123.879C82.3989 123.747 82.2201 123.673 82.0336 123.673Z" fill="#57C14C"/>
<path d="M148.359 119.454H145.547V116.641C145.547 116.455 145.473 116.276 145.341 116.144C145.209 116.012 145.03 115.938 144.844 115.938C144.657 115.938 144.478 116.012 144.347 116.144C144.215 116.276 144.141 116.455 144.141 116.641V119.454H141.328C141.142 119.454 140.963 119.528 140.831 119.66C140.699 119.792 140.625 119.971 140.625 120.157C140.625 120.344 140.699 120.522 140.831 120.654C140.963 120.786 141.142 120.86 141.328 120.86H144.141V123.673C144.141 123.859 144.215 124.038 144.347 124.17C144.478 124.302 144.657 124.376 144.844 124.376C145.03 124.376 145.209 124.302 145.341 124.17C145.473 124.038 145.547 123.859 145.547 123.673V120.86H148.359C148.546 120.86 148.725 120.786 148.857 120.654C148.988 120.522 149.062 120.344 149.062 120.157C149.062 119.971 148.988 119.792 148.857 119.66C148.725 119.528 148.546 119.454 148.359 119.454Z" fill="#E9803E"/>
<path d="M51.0961 53.4375H48.2836V50.625C48.2836 50.4385 48.2095 50.2597 48.0777 50.1278C47.9458 49.996 47.767 49.9219 47.5805 49.9219C47.394 49.9219 47.2152 49.996 47.0833 50.1278C46.9514 50.2597 46.8773 50.4385 46.8773 50.625V53.4375H44.0648C43.8784 53.4375 43.6995 53.5116 43.5677 53.6434C43.4358 53.7753 43.3617 53.9541 43.3617 54.1406C43.3617 54.3271 43.4358 54.5059 43.5677 54.6378C43.6995 54.7697 43.8784 54.8438 44.0648 54.8438H46.8773V57.6562C46.8773 57.8427 46.9514 58.0216 47.0833 58.1534C47.2152 58.2853 47.394 58.3594 47.5805 58.3594C47.767 58.3594 47.9458 58.2853 48.0777 58.1534C48.2095 58.0216 48.2836 57.8427 48.2836 57.6562V54.8438H51.0961C51.2826 54.8438 51.4614 54.7697 51.5933 54.6378C51.7251 54.5059 51.7992 54.3271 51.7992 54.1406C51.7992 53.9541 51.7251 53.7753 51.5933 53.6434C51.4614 53.5116 51.2826 53.4375 51.0961 53.4375Z" fill="#57C14C"/>
<path d="M144.844 73.9055C144.009 73.9055 143.194 73.658 142.5 73.1945C141.806 72.7309 141.265 72.072 140.946 71.3012C140.627 70.5303 140.543 69.682 140.706 68.8637C140.869 68.0453 141.271 67.2936 141.861 66.7036C142.451 66.1136 143.202 65.7118 144.021 65.549C144.839 65.3862 145.687 65.4698 146.458 65.7891C147.229 66.1084 147.888 66.6491 148.352 67.3429C148.815 68.0367 149.062 68.8523 149.062 69.6867C149.062 70.8056 148.618 71.8786 147.827 72.6698C147.036 73.461 145.963 73.9055 144.844 73.9055ZM144.844 66.8742C144.287 66.8742 143.744 67.0392 143.281 67.3482C142.819 67.6572 142.458 68.0965 142.245 68.6104C142.032 69.1243 141.977 69.6898 142.085 70.2354C142.194 70.781 142.462 71.2821 142.855 71.6754C143.248 72.0688 143.749 72.3366 144.295 72.4452C144.841 72.5537 145.406 72.498 145.92 72.2851C146.434 72.0722 146.873 71.7118 147.182 71.2493C147.491 70.7867 147.656 70.243 147.656 69.6867C147.656 68.9408 147.36 68.2254 146.832 67.698C146.305 67.1705 145.59 66.8742 144.844 66.8742Z" fill="#57C14C"/>
<path d="M37.2656 96.3281H35.4445L36.7313 95.0414C36.8464 94.9069 36.9066 94.7339 36.8998 94.5569C36.893 94.38 36.8196 94.2121 36.6944 94.0869C36.5692 93.9616 36.4013 93.8883 36.2243 93.8815C36.0474 93.8746 35.8744 93.9348 35.7398 94.05L34.4531 95.3367V93.5156C34.4531 93.3291 34.379 93.1503 34.2472 93.0184C34.1153 92.8866 33.9365 92.8125 33.75 92.8125C33.5635 92.8125 33.3847 92.8866 33.2528 93.0184C33.121 93.1503 33.0469 93.3291 33.0469 93.5156V95.3367L31.7602 94.05C31.6256 93.9348 31.4526 93.8746 31.2757 93.8815C31.0987 93.8883 30.9308 93.9616 30.8056 94.0869C30.6804 94.2121 30.607 94.38 30.6002 94.5569C30.5934 94.7339 30.6536 94.9069 30.7687 95.0414L32.0555 96.3281H30.2344C30.0479 96.3281 29.8691 96.4022 29.7372 96.5341C29.6053 96.6659 29.5312 96.8448 29.5312 97.0312C29.5312 97.2177 29.6053 97.3966 29.7372 97.5284C29.8691 97.6603 30.0479 97.7344 30.2344 97.7344H32.0555L30.7687 99.0211C30.6536 99.1556 30.5934 99.3286 30.6002 99.5056C30.607 99.6825 30.6804 99.8504 30.8056 99.9756C30.9308 100.101 31.0987 100.174 31.2757 100.181C31.4526 100.188 31.6256 100.128 31.7602 100.013L33.0469 98.7258V100.547C33.0469 100.733 33.121 100.912 33.2528 101.044C33.3847 101.176 33.5635 101.25 33.75 101.25C33.9365 101.25 34.1153 101.176 34.2472 101.044C34.379 100.912 34.4531 100.733 34.4531 100.547V98.7258L35.7398 100.013C35.8744 100.128 36.0474 100.188 36.2243 100.181C36.4013 100.174 36.5692 100.101 36.6944 99.9756C36.8196 99.8504 36.893 99.6825 36.8998 99.5056C36.9066 99.3286 36.8464 99.1556 36.7313 99.0211L35.4445 97.7344H37.2656C37.4521 97.7344 37.6309 97.6603 37.7628 97.5284C37.8947 97.3966 37.9688 97.2177 37.9688 97.0312C37.9688 96.8448 37.8947 96.6659 37.7628 96.5341C37.6309 96.4022 37.4521 96.3281 37.2656 96.3281Z" fill="#57C14C"/>
</svg>
